# xmcd
#
# Track frame offsets:
#	150
#	14920
#	31336
#	45107
#	61213
#	73979
#	88227
#	101747
#	116183
#	129619
#
# Disc length: 1938 seconds
#
# Revision: 1
# Processed by: cddbd v1.5.2PL0 Copyright (c) Steve Scherf et al.
# Submitted via: audiograbber 1.83.01
#
DISCID=9007900a
DTITLE=Alpensound  - Demo 1
DYEAR=1900
DGENRE=Blasmusik
TTITLE0=Himmelblaue Augen
TTITLE1=Musik, die aus dem Herzen kommt
TTITLE2=Auf los geht`s los
TTITLE3=Morgenstund` hat Gold im Mund
TTITLE4=Sterne überm Böhmerland
TTITLE5=Sancho und Pancho
TTITLE6=Trompetenpolka
TTITLE7=Josefska Polka
TTITLE8=Gute Laune
TTITLE9=Frühlingsfest
EXTD=
EXTT0=
EXTT1=
EXTT2=
EXTT3=
EXTT4=
EXTT5=
EXTT6=
EXTT7=
EXTT8=
EXTT9=
PLAYORDER=
